<svg width="38" height="47" viewBox="0 0 38 47" fill="none" xmlns="http://www.w3.org/2000/svg">
<g clip-path="url(#clip0_39_1297)">
<path d="M27.4035 30.956C28.6263 30.2127 30.0261 29.7895 31.5168 29.7895H31.5218C31.6734 29.7895 31.7441 29.5837 31.633 29.4693C30.0827 27.8951 28.3118 26.6237 26.3928 25.7071C26.3726 25.6956 26.3524 25.6899 26.3322 25.6785C29.4702 23.0998 31.5117 18.9086 31.5117 14.18C31.5117 6.34671 25.9128 0 19.005 0C12.0973 0 6.50345 6.34671 6.50345 14.18C6.50345 18.9086 8.54494 23.0998 11.688 25.6785C11.6678 25.6899 11.6476 25.6956 11.6274 25.7071C9.36861 26.7877 7.34228 28.3372 5.59893 30.3156C3.86565 32.2733 2.48573 34.594 1.53616 37.1483C0.601895 39.6496 0.09768 42.3295 0.0505261 45.0445C0.0491774 45.1055 0.0586371 45.1663 0.0783481 45.2231C0.0980592 45.2799 0.127623 45.3317 0.165296 45.3754C0.20297 45.4191 0.247992 45.4538 0.297709 45.4775C0.347426 45.5012 0.400833 45.5134 0.454781 45.5134H3.48164C3.69893 45.5134 3.88085 45.3133 3.8859 45.0674C3.98696 40.6533 5.5484 36.5193 8.31249 33.386C11.1675 30.144 14.9675 28.3601 19.0101 28.3601C21.8753 28.3601 24.6242 29.2578 26.9941 30.9388C27.055 30.9821 27.1249 31.0065 27.1968 31.0095C27.2686 31.0125 27.3399 30.994 27.4035 30.956ZM19.0101 24.0146C16.6957 24.0146 14.5178 22.9911 12.8755 21.1328C12.0675 20.2209 11.4269 19.1371 10.9907 17.9438C10.5545 16.7505 10.3312 15.4714 10.3338 14.18C10.3338 11.5556 11.2383 9.08552 12.8755 7.22725C14.5128 5.36898 16.6907 4.3455 19.0101 4.3455C21.3295 4.3455 23.5024 5.36898 25.1447 7.22725C25.9527 8.13918 26.5933 9.223 27.0295 10.4163C27.4657 11.6096 27.689 12.8887 27.6864 14.18C27.6864 16.8045 26.7819 19.2746 25.1447 21.1328C23.5024 22.9911 21.3245 24.0146 19.0101 24.0146ZM37.5957 37.6229H33.3511V32.82C33.3511 32.5684 33.1691 32.3625 32.9468 32.3625H30.117C29.8947 32.3625 29.7128 32.5684 29.7128 32.82V37.6229H25.4681C25.2457 37.6229 25.0638 37.8287 25.0638 38.0803V41.2822C25.0638 41.5338 25.2457 41.7397 25.4681 41.7397H29.7128V46.5426C29.7128 46.7942 29.8947 47 30.117 47H32.9468C33.1691 47 33.3511 46.7942 33.3511 46.5426V41.7397H37.5957C37.8181 41.7397 38 41.5338 38 41.2822V38.0803C38 37.8287 37.8181 37.6229 37.5957 37.6229Z" fill="#FFFEFE"/>
</g>
<defs>
<clipPath id="clip0_39_1297">
<rect width="38" height="47" fill="white"/>
</clipPath>
</defs>
</svg>
