<svg width="50" height="50" viewBox="0 0 50 50" fill="none" xmlns="http://www.w3.org/2000/svg">
<g clip-path="url(#clip0_39_1329)">
<path d="M0.00628662 9.375C0.00628662 7.7174 0.664767 6.12769 1.83687 4.95558C3.00897 3.78348 4.59868 3.125 6.25629 3.125H43.7563C45.4139 3.125 47.0036 3.78348 48.1757 4.95558C49.3478 6.12769 50.0063 7.7174 50.0063 9.375V40.625C50.0063 42.2826 49.3478 43.8723 48.1757 45.0444C47.0036 46.2165 45.4139 46.875 43.7563 46.875H6.25629C4.59868 46.875 3.00897 46.2165 1.83687 45.0444C0.664767 43.8723 0.00628662 42.2826 0.00628662 40.625V9.375ZM3.13129 37.5V40.625C3.13129 41.4538 3.46053 42.2487 4.04658 42.8347C4.63263 43.4208 5.42748 43.75 6.25629 43.75H43.7563C44.5851 43.75 45.3799 43.4208 45.966 42.8347C46.552 42.2487 46.8813 41.4538 46.8813 40.625V29.6875L35.0782 23.6031C34.7851 23.4563 34.4533 23.4054 34.1297 23.4576C33.8061 23.5097 33.5071 23.6623 33.275 23.8937L21.6813 35.4875L13.3688 29.95C13.0687 29.7502 12.7087 29.6603 12.3498 29.6956C11.991 29.7309 11.6555 29.8893 11.4 30.1437L3.13129 37.5ZM18.7563 17.1875C18.7563 15.9443 18.2624 14.752 17.3833 13.8729C16.5043 12.9939 15.312 12.5 14.0688 12.5C12.8256 12.5 11.6333 12.9939 10.7542 13.8729C9.87514 14.752 9.38128 15.9443 9.38128 17.1875C9.38128 18.4307 9.87514 19.623 10.7542 20.5021C11.6333 21.3811 12.8256 21.875 14.0688 21.875C15.312 21.875 16.5043 21.3811 17.3833 20.5021C18.2624 19.623 18.7563 18.4307 18.7563 17.1875Z" fill="#E96363"/>
</g>
<defs>
<clipPath id="clip0_39_1329">
<rect width="50" height="50" fill="white"/>
</clipPath>
</defs>
</svg>
