<svg width="65" height="65" viewBox="0 0 65 65" fill="none" xmlns="http://www.w3.org/2000/svg">
<path d="M16.25 36.5625C18.4937 36.5625 20.3125 34.7437 20.3125 32.5C20.3125 30.2563 18.4937 28.4375 16.25 28.4375C14.0063 28.4375 12.1875 30.2563 12.1875 32.5C12.1875 34.7437 14.0063 36.5625 16.25 36.5625Z" fill="#FDFDFD"/>
<path d="M32.5 36.5625C34.7437 36.5625 36.5625 34.7437 36.5625 32.5C36.5625 30.2563 34.7437 28.4375 32.5 28.4375C30.2563 28.4375 28.4375 30.2563 28.4375 32.5C28.4375 34.7437 30.2563 36.5625 32.5 36.5625Z" fill="#FDFDFD"/>
<path d="M48.75 36.5625C50.9937 36.5625 52.8125 34.7437 52.8125 32.5C52.8125 30.2563 50.9937 28.4375 48.75 28.4375C46.5063 28.4375 44.6875 30.2563 44.6875 32.5C44.6875 34.7437 46.5063 36.5625 48.75 36.5625Z" fill="#FDFDFD"/>
</svg>
