<svg width="50" height="50" viewBox="0 0 50 50" fill="none" xmlns="http://www.w3.org/2000/svg">
<path d="M29.1667 29.6917V34.0459C27.2811 33.3792 25.2631 33.1747 23.2821 33.4496C21.3011 33.7245 19.415 34.4706 17.7822 35.6255C16.1493 36.7803 14.8174 38.3101 13.8983 40.0863C12.9791 41.8626 12.4996 43.8334 12.5 45.8334L8.33334 45.8313C8.3327 43.2873 8.91443 40.7769 10.034 38.4925C11.1535 36.2081 12.7811 34.2103 14.7921 32.6522C16.8031 31.0941 19.1441 30.017 21.6357 29.5035C24.1274 28.9899 26.7035 29.0536 29.1667 29.6896V29.6917ZM25 27.0834C18.0938 27.0834 12.5 21.4896 12.5 14.5834C12.5 7.67712 18.0938 2.08337 25 2.08337C31.9063 2.08337 37.5 7.67712 37.5 14.5834C37.5 21.4896 31.9063 27.0834 25 27.0834ZM25 22.9167C29.6042 22.9167 33.3333 19.1875 33.3333 14.5834C33.3333 9.97921 29.6042 6.25004 25 6.25004C20.3958 6.25004 16.6667 9.97921 16.6667 14.5834C16.6667 19.1875 20.3958 22.9167 25 22.9167ZM37.0688 41.4875L44.4333 34.123L47.3813 37.0688L37.0688 47.3813L29.7021 40.0146L32.65 37.0688L37.0667 41.4875H37.0688Z" fill="black"/>
</svg>
